# xmcd
#
# Track frame offsets:
#	150
#	19095
#	34344
#	52978
#	66237
#	86945
#	101089
#	113011
#	128040
#	142114
#	156551
#	178026
#
# Disc length: 2649 seconds
# Revision: 0
# Processed by: cddbd v1.5.2PL0 Copyright (c) Steve Scherf et al.
# Submitted via: dBpowerAMP V12.0
#
DISCID=ad0a570c
DTITLE=Nathan Carter - Wagon Wheel
DYEAR=2012
DGENRE=Country
TTITLE0=Wagon Wheel
TTITLE1=Long Time Gone
TTITLE2=Hug
TTITLE3=Pub Crawl
TTITLE4=Caledonia
TTITLE5=Tequilla makes her clothes fall off
TTITLE6=You've got a friend in me
TTITLE7=Drift away
TTITLE8=Botany Bay
TTITLE9=Back to Tourmakeady
TTITLE10=Nobody's Darlin'
TTITLE11=If I get an encore
EXTD=
EXTT0=
EXTT1=
EXTT2=
EXTT3=
EXTT4=
EXTT5=
EXTT6=
EXTT7=
EXTT8=
EXTT9=
EXTT10=
EXTT11=
PLAYORDER=
